<?xml version="1.0" encoding="utf-8"?>
<!-- Generator: Adobe Illustrator 16.0.3, SVG Export Plug-In . SVG Version: 6.00 Build 0)  -->
<!DOCTYPE svg PUBLIC "-//W3C//DTD SVG 1.1//EN" "http://www.w3.org/Graphics/SVG/1.1/DTD/svg11.dtd">
<svg version="1.1" id="Layer_1" xmlns="http://www.w3.org/2000/svg" xmlns:xlink="http://www.w3.org/1999/xlink" x="0px" y="0px"
	 width="81.896px" height="30.493px" viewBox="0 0 81.896 30.493" enable-background="new 0 0 81.896 30.493" xml:space="preserve">
<g>
	<path fill="#3498DB" d="M79.845,13.065h-11.53c0.419-1.658,1.188-6.954,1.188-6.954c-0.174-2.567-1.893-5.797-1.893-5.797
		C67.064,0.086,66.601,0,66.21,0c-1.067,0-1.561,0.637-1.561,0.637s0.106,4.083,0.106,5.027c0,0.943-4.668,8.493-5.81,9.462
		c-0.175,0.148-0.371,0.325-0.604,0.495l-3.012,13.7h2.994c0.734,0.279,1.594,1.172,2.525,1.172h14.294
		c3.419,0,4.594-4.355,1.175-4.355c3.419,0,4.594-4.355,1.176-4.355c3.418,0,4.592-4.361,1.174-4.361
		C82.089,17.42,83.263,13.065,79.845,13.065"/>
	<g>
		<path fill="#3498DB" d="M13.99,11.833l-0.645,2.627h-5.11L4.738,29.01H1.612L5.11,14.46H0l0.62-2.627H13.99z"/>
	</g>
	<g>
		<path fill="#3498DB" d="M20.762,18.7c-0.332-0.115-0.688-0.207-1.07-0.273c-0.382-0.065-0.83-0.098-1.344-0.098
			c-0.282,0-0.581,0.021-0.896,0.062c-0.314,0.042-0.581,0.095-0.796,0.161L14.164,29.01h-3.001l2.978-12.368
			c0.693-0.231,1.446-0.435,2.257-0.606c0.81-0.174,1.687-0.261,2.629-0.261c0.199,0,0.422,0.013,0.67,0.037
			s0.492,0.054,0.732,0.087c0.238,0.033,0.462,0.074,0.669,0.124s0.385,0.106,0.533,0.173L20.762,18.7z"/>
		<path fill="#3498DB" d="M33.859,16.047l-1.835,7.709c-0.083,0.379-0.146,0.761-0.187,1.14c-0.042,0.381-0.062,0.763-0.062,1.142
			c0,0.479,0.037,0.95,0.111,1.414c0.074,0.463,0.202,0.916,0.385,1.362l-2.68,0.396c-0.099-0.183-0.186-0.385-0.26-0.606
			c-0.075-0.224-0.145-0.45-0.211-0.683c-0.414,0.33-0.926,0.648-1.538,0.955c-0.611,0.306-1.322,0.457-2.133,0.457
			c-0.728,0-1.348-0.106-1.86-0.322c-0.513-0.213-0.93-0.508-1.253-0.879c-0.321-0.373-0.554-0.811-0.693-1.313
			c-0.142-0.504-0.211-1.036-0.211-1.601c0-0.727,0.099-1.512,0.298-2.354l1.637-6.818h3.001l-1.62,6.744
			c-0.21,0.858-0.314,1.562-0.314,2.105c0,0.266,0.024,0.514,0.074,0.744c0.05,0.232,0.138,0.434,0.262,0.607
			s0.298,0.311,0.521,0.408c0.225,0.1,0.502,0.149,0.833,0.149c0.547,0,1.037-0.112,1.468-0.337
			c0.432-0.223,0.829-0.522,1.194-0.903c0.049-0.711,0.166-1.438,0.348-2.183l1.723-7.336h3.002V16.047z"/>
		<path fill="#3498DB" d="M37.928,26.905c0.794,0,1.422-0.128,1.885-0.384c0.463-0.257,0.693-0.647,0.693-1.179
			c0-0.43-0.147-0.771-0.445-1.028c-0.298-0.256-0.819-0.558-1.563-0.903c-0.396-0.183-0.765-0.373-1.104-0.57
			c-0.339-0.198-0.633-0.43-0.881-0.694s-0.446-0.573-0.596-0.931c-0.148-0.354-0.223-0.779-0.223-1.275
			c0-1.289,0.471-2.313,1.414-3.074c0.942-0.76,2.307-1.141,4.094-1.141c0.826,0,1.566,0.087,2.22,0.26
			c0.653,0.174,1.146,0.352,1.477,0.533l-1.066,2.33c-0.28-0.165-0.687-0.326-1.215-0.482c-0.53-0.158-1.084-0.236-1.663-0.236
			c-0.281,0-0.558,0.025-0.831,0.074c-0.272,0.051-0.517,0.133-0.731,0.248c-0.215,0.116-0.394,0.276-0.533,0.483
			c-0.142,0.207-0.211,0.459-0.211,0.756c0,0.382,0.152,0.69,0.459,0.931c0.306,0.239,0.748,0.491,1.327,0.756
			c0.546,0.248,1.008,0.488,1.389,0.719c0.381,0.232,0.695,0.492,0.943,0.781s0.43,0.61,0.545,0.967
			c0.116,0.355,0.174,0.781,0.174,1.275c0,0.612-0.123,1.178-0.371,1.698s-0.608,0.968-1.08,1.339
			c-0.471,0.372-1.054,0.666-1.749,0.881c-0.694,0.215-1.488,0.321-2.381,0.321c-0.612,0-1.162-0.041-1.649-0.124
			s-0.914-0.178-1.277-0.285c-0.364-0.107-0.669-0.219-0.917-0.334c-0.25-0.115-0.44-0.216-0.573-0.298l1.067-2.354
			c0.114,0.065,0.284,0.152,0.508,0.261c0.223,0.108,0.479,0.21,0.769,0.31c0.289,0.1,0.612,0.186,0.967,0.26
			C37.154,26.868,37.531,26.905,37.928,26.905z"/>
		<path fill="#3498DB" d="M48.172,12.626l3.126-0.496l-0.946,3.917h4.246l-0.597,2.479h-4.25l-1.241,5.133
			c-0.078,0.362-0.135,0.664-0.167,0.903c-0.03,0.239-0.047,0.459-0.047,0.655c0,0.199,0.021,0.395,0.063,0.584
			c0.041,0.189,0.123,0.355,0.248,0.496c0.123,0.141,0.305,0.257,0.545,0.347c0.24,0.092,0.565,0.138,0.979,0.138
			c0.446,0,0.876-0.059,1.289-0.175c0.414-0.114,0.777-0.239,1.093-0.371l0.224,2.404c-0.381,0.165-0.86,0.321-1.438,0.471
			c-0.58,0.147-1.258,0.224-2.034,0.224c-1.423,0-2.439-0.311-3.052-0.931c-0.61-0.618-0.918-1.466-0.918-2.541
			c0-0.396,0.029-0.805,0.088-1.228c0.058-0.422,0.146-0.87,0.261-1.35L48.172,12.626z"/>
	</g>
	<polygon fill="#FFFFFF" points="63.425,16.342 65.358,16.342 62.813,26.958 60.88,26.958 	"/>
	<path fill="#FFFFFF" d="M75.154,20.418c0,0.947-0.154,1.832-0.461,2.648s-0.762,1.521-1.365,2.114
		c-0.602,0.593-1.354,1.058-2.26,1.394c-0.904,0.338-1.955,0.506-3.15,0.506c-0.43,0-0.91-0.022-1.44-0.067
		c-0.531-0.048-1.021-0.121-1.472-0.224l2.469-10.279c0.5-0.111,1.007-0.186,1.517-0.221c0.512-0.037,0.981-0.055,1.412-0.055
		c0.775,0,1.461,0.1,2.054,0.299c0.592,0.199,1.088,0.48,1.487,0.844c0.396,0.361,0.698,0.802,0.903,1.316
		C75.05,19.209,75.154,19.786,75.154,20.418 M67.275,25.381c0.112,0.021,0.244,0.033,0.392,0.037
		c0.147,0.006,0.38,0.008,0.696,0.008c0.735,0,1.4-0.117,1.992-0.354c0.594-0.234,1.096-0.568,1.51-1.002
		c0.414-0.436,0.733-0.955,0.957-1.563c0.226-0.606,0.338-1.283,0.338-2.029c0-0.807-0.229-1.443-0.688-1.915
		c-0.461-0.472-1.212-0.705-2.254-0.705c-0.267,0-0.478,0.007-0.637,0.017c-0.158,0.01-0.329,0.024-0.513,0.045L67.275,25.381z"/>
</g>
</svg>
