<?xml version="1.0" encoding="utf-8"?>
<!-- Generator: Adobe Illustrator 16.0.3, SVG Export Plug-In . SVG Version: 6.00 Build 0)  -->
<!DOCTYPE svg PUBLIC "-//W3C//DTD SVG 1.1//EN" "http://www.w3.org/Graphics/SVG/1.1/DTD/svg11.dtd">
<svg version="1.1" id="Layer_1" xmlns="http://www.w3.org/2000/svg" xmlns:xlink="http://www.w3.org/1999/xlink" x="0px" y="0px"
	 width="58.866px" height="78.158px" viewBox="0 0 58.866 78.158" enable-background="new 0 0 58.866 78.158" xml:space="preserve">
<g>
	<polygon fill="#3498DB" points="0.496,0.496 0.496,77.662 58.371,77.662 58.371,21.702 37.165,0.496 	"/>
	<path fill="#3498DB" d="M0.496,0.496H0v77.166c0,0.13,0.053,0.258,0.146,0.351s0.22,0.146,0.351,0.146h57.875
		c0.13,0,0.258-0.053,0.351-0.146s0.146-0.22,0.146-0.351v-55.96c0-0.13-0.053-0.258-0.146-0.351L37.516,0.146
		C37.423,0.053,37.295,0,37.165,0H0.496C0.365,0,0.238,0.053,0.146,0.146S0,0.365,0,0.496H0.496v0.496h36.463l20.916,20.916v55.258
		H0.992V0.496H0.496v0.496V0.496z"/>
	<polygon fill="#FFFFFF" points="58.37,21.702 37.164,21.702 37.164,0.496 	"/>
	<path fill="#3498DB" d="M58.37,21.702v-0.496H37.66V1.693L58.02,22.053L58.37,21.702v-0.496V21.702l0.351-0.351L37.515,0.146
		c-0.142-0.142-0.355-0.185-0.541-0.107c-0.185,0.077-0.306,0.257-0.306,0.458v21.206c0,0.13,0.053,0.258,0.146,0.351
		s0.22,0.146,0.351,0.146H58.37c0.201,0,0.381-0.121,0.458-0.306c0.077-0.186,0.035-0.399-0.107-0.541L58.37,21.702z"/>
	<path fill="#FFFFFF" d="M45.166,48.929c0,8.688-7.044,15.732-15.733,15.732c-8.688,0-15.732-7.044-15.732-15.732
		c0-8.689,7.044-15.733,15.732-15.733C38.122,33.195,45.166,40.239,45.166,48.929"/>
	<path fill="#3498DB" d="M45.166,48.929H44.67c0,4.209-1.705,8.015-4.463,10.773c-2.759,2.758-6.565,4.463-10.774,4.463
		c-4.209,0-8.015-1.705-10.773-4.463c-2.758-2.759-4.463-6.564-4.463-10.773c0-4.209,1.705-8.016,4.463-10.774
		c2.759-2.758,6.564-4.463,10.773-4.463c4.209,0,8.016,1.705,10.774,4.463c2.758,2.759,4.463,6.565,4.463,10.774H45.166h0.496
		c0-8.963-7.266-16.229-16.229-16.229c-8.962,0-16.228,7.266-16.229,16.229c0,8.962,7.266,16.228,16.229,16.229
		c8.963,0,16.229-7.266,16.229-16.229H45.166z"/>
	<polygon fill="#3498DB" points="21.002,48.111 29.993,39.119 38.985,48.111 	"/>
	<rect x="24.446" y="47.607" fill="#3498DB" width="11.095" height="5.451"/>
	<rect x="24.446" y="54.861" fill="#3498DB" width="11.095" height="2.592"/>
</g>
</svg>
