<?xml version="1.0" encoding="utf-8"?>
<!-- Generator: Adobe Illustrator 16.0.3, SVG Export Plug-In . SVG Version: 6.00 Build 0)  -->
<!DOCTYPE svg PUBLIC "-//W3C//DTD SVG 1.1//EN" "http://www.w3.org/Graphics/SVG/1.1/DTD/svg11.dtd">
<svg version="1.1" id="Layer_1" xmlns="http://www.w3.org/2000/svg" xmlns:xlink="http://www.w3.org/1999/xlink" x="0px" y="0px"
	 width="44.436px" height="37.031px" viewBox="0 0 44.436 37.031" enable-background="new 0 0 44.436 37.031" xml:space="preserve">
<path fill="#3498DB" d="M38.784,0H5.652C2.53,0,0,2.531,0,5.652v25.727c0,3.121,2.53,5.652,5.652,5.652h33.132
	c3.121,0,5.651-2.531,5.651-5.652V5.652C44.435,2.531,41.905,0,38.784,0 M22.217,27.369c-4.89,0-8.853-3.965-8.853-8.854
	c0-4.89,3.963-8.854,8.853-8.854c4.891,0,8.854,3.964,8.854,8.854C31.07,23.404,27.107,27.369,22.217,27.369 M36.306,11.391
	c-1.666,0-3.018-1.351-3.018-3.017c0-1.665,1.352-3.015,3.018-3.015c1.664,0,3.016,1.35,3.016,3.015
	C39.322,10.04,37.97,11.391,36.306,11.391"/>
</svg>
